# xmcd
#
# Track frame offsets:
#	150
#	20172
#	35122
#	52097
#	70097
#	83672
#	98885
#	118647
#	134097
#	148622
#
# Disc length: 2235 seconds
# Revision: 3
# Processed by: cddbd v1.5.2PL0 Copyright (c) Steve Scherf et al.
# Submitted via: dBpowerAMP V12.0
#
DISCID=9508b90a
DTITLE=Various Artist - Country Voices: a Collection of Award-Winning Country Music
DYEAR=1998
DGENRE=Country
TTITLE0=Shania Twain - Whose Bed Have Your Boots Been Under?
TTITLE1=Alan Jackson - Home
TTITLE2=Lee Ann Womack - Never Again, Again
TTITLE3=Clint Black - Half Way Up
TTITLE4=Mavericks, The - Something Stupid
TTITLE5=Bryan White - Someone Else's Star
TTITLE6=Pam Tillis - The River and the Highway
TTITLE7=Vince Gill - You and You Alone
TTITLE8=Deana Carter - Did I Shave My Legs for This
TTITLE9=George Strait - I Can Still Make Cheyenne
EXTD=
EXTT0=
EXTT1=
EXTT2=
EXTT3=
EXTT4=
EXTT5=
EXTT6=
EXTT7=
EXTT8=
EXTT9=
PLAYORDER=
